<?xml version="1.0" encoding="iso-8859-1"?>
<!-- Generator: Adobe Illustrator 16.0.0, SVG Export Plug-In . SVG Version: 6.00 Build 0)  -->
<!DOCTYPE svg PUBLIC "-//W3C//DTD SVG 1.1//EN" "http://www.w3.org/Graphics/SVG/1.1/DTD/svg11.dtd">
<svg version="1.1" id="Capa_1" xmlns="http://www.w3.org/2000/svg" xmlns:xlink="http://www.w3.org/1999/xlink" x="0px" y="0px"
	 width="375.745px" height="375.746px" viewBox="0 0 375.745 375.746" style="enable-background:new 0 0 375.745 375.746;"
	 xml:space="preserve">
<g>
	<g>
		<path style="fill:#030303;" d="M188.067,375.738c-8.62,0-17.331-0.606-25.911-1.807c-4.46-0.618-8.488-3.104-11.036-6.821
			c-2.547-3.694-3.419-8.343-2.39-12.74c1.267-5.426,0.757-10.95-1.481-15.993c-4.051-9.092-13.108-14.976-23.069-14.976
			c-3.537,0-6.973,0.738-10.23,2.185c-4.872,2.167-8.863,5.764-11.55,10.418c-2.256,3.905-6.079,6.701-10.481,7.656
			c-4.188,0.967-9.018,0.046-12.714-2.579c-15.779-11.149-29.708-24.684-41.39-40.231c-2.705-3.597-3.777-8.194-2.945-12.608
			c0.81-4.374,3.459-8.263,7.273-10.652c4.783-2.984,8.326-7.211,10.258-12.23c2.418-6.29,2.241-13.146-0.498-19.299
			c-2.742-6.158-7.714-10.876-14.006-13.295c-4.849-1.847-10.241-2.115-15.387-0.783c-4.434,1.145-9.049,0.36-12.777-2.041
			c-3.788-2.447-6.381-6.398-7.125-10.818c-3.211-18.893-3.462-38.236-0.732-57.5c0.643-4.44,3.108-8.419,6.767-10.95
			c3.671-2.536,8.28-3.431,12.631-2.465c5.275,1.158,10.801,0.626,15.702-1.541c6.155-2.733,10.878-7.705,13.297-14
			c2.413-6.287,2.233-13.143-0.503-19.293c-2.113-4.754-5.592-8.677-10.063-11.348c-3.837-2.295-6.559-6.112-7.474-10.486
			c-0.918-4.363,0.037-8.958,2.625-12.6c11.136-15.693,24.59-29.522,39.998-41.104c3.52-2.636,8.074-3.742,12.448-2.973
			c4.374,0.772,8.262,3.354,10.678,7.084c2.965,4.572,7.116,7.985,12.022,9.872c2.934,1.124,5.979,1.696,9.04,1.696
			c10.37,0,19.839-6.51,23.556-16.199c1.838-4.78,2.156-9.978,0.915-15.027c-1.066-4.314-0.277-8.923,2.17-12.64
			c2.441-3.714,6.347-6.264,10.721-7.016c18.649-3.185,38.265-3.477,57.183-0.843c4.392,0.612,8.377,3.039,10.927,6.658
			c2.551,3.654,3.488,8.22,2.567,12.56c-1.092,5.241-0.537,10.564,1.612,15.394c4.049,9.105,13.106,14.983,23.066,14.983
			c3.528,0,6.965-0.737,10.235-2.189c4.7-2.09,8.601-5.526,11.276-9.947c2.315-3.796,6.124-6.49,10.458-7.396
			c4.58-0.927,8.932,0.071,12.534,2.587c15.713,11.09,29.562,24.482,41.17,39.804c2.688,3.536,3.791,8.082,3.036,12.462
			c-0.761,4.383-3.34,8.283-7.079,10.707c-4.562,2.971-7.971,7.122-9.853,12.005c-4.985,12.991,1.527,27.618,14.507,32.602
			c4.758,1.833,10.081,2.139,15.182,0.849c4.352-1.078,8.948-0.3,12.665,2.107c3.745,2.436,6.324,6.341,7.073,10.727
			c3.294,18.913,3.66,38.222,1.087,57.372c-0.612,4.46-3.071,8.469-6.742,11.024c-2.704,1.875-5.884,2.865-9.188,2.865
			c-0.006,0-0.006,0-0.006,0c-1.155,0-2.311-0.121-3.437-0.361c-5.381-1.2-10.812-0.634-15.707,1.533
			c-12.694,5.649-18.43,20.596-12.786,33.307c2.145,4.815,5.707,8.783,10.287,11.465c3.877,2.271,6.645,6.073,7.594,10.447
			c0.943,4.363,0.022,8.966-2.539,12.637c-11.121,15.827-24.599,29.779-40.061,41.49c-3.545,2.688-8.177,3.813-12.597,3.002
			c-4.42-0.824-8.325-3.471-10.71-7.273c-2.984-4.77-7.21-8.314-12.23-10.253c-2.916-1.114-5.958-1.681-9.012-1.681
			c-10.367,0-19.848,6.507-23.569,16.199c-1.888,4.912-2.133,10.281-0.715,15.535c1.172,4.329,0.451,9.001-1.968,12.809
			c-2.424,3.791-6.358,6.416-10.795,7.188C209.393,374.811,198.688,375.738,188.067,375.738z M124.18,311.69
			c14.581,0,27.835,8.606,33.773,21.929c3.285,7.399,4.034,15.49,2.184,23.421c-0.28,1.189-0.046,2.442,0.632,3.438
			c0.698,1.018,1.787,1.687,2.999,1.852c17.958,2.505,36.298,2.213,54.104-0.874c1.201-0.206,2.271-0.915,2.922-1.944
			c0.652-1.035,0.858-2.299,0.544-3.454c-2.076-7.679-1.692-15.553,1.086-22.798c5.461-14.18,19.327-23.706,34.509-23.706
			c4.494,0,8.932,0.829,13.214,2.458c7.416,2.865,13.608,8.034,17.954,14.965c0.646,1.04,1.704,1.761,2.905,1.979
			c1.184,0.211,2.447-0.098,3.408-0.812c14.489-10.979,27.12-24.056,37.532-38.877c0.704-1,0.949-2.229,0.687-3.437
			c-0.257-1.178-1.006-2.213-2.063-2.83c-6.708-3.917-11.929-9.732-15.079-16.812c-8.263-18.611,0.132-40.488,18.732-48.763
			c7.182-3.179,15.238-3.974,22.97-2.271c0.291,0.063,0.611,0.098,0.926,0.098c0.006,0,0.006,0,0.006,0
			c0.909,0,1.778-0.269,2.516-0.777c0.989-0.687,1.646-1.773,1.818-2.979c2.413-17.948,2.07-36.055-1.018-53.804
			c-0.206-1.187-0.897-2.241-1.91-2.896c-1-0.649-2.264-0.861-3.453-0.569c-7.417,1.85-15.228,1.418-22.221-1.281
			c-19.007-7.302-28.533-28.716-21.23-47.733c2.768-7.208,7.742-13.303,14.403-17.629c1.012-0.657,1.71-1.71,1.915-2.899
			c0.201-1.189-0.097-2.418-0.823-3.373c-10.887-14.367-23.872-26.915-38.585-37.302c-0.966-0.675-2.219-0.943-3.442-0.697
			c-1.138,0.24-2.173,0.966-2.796,1.995c-3.923,6.464-9.635,11.508-16.53,14.575c-4.78,2.125-9.824,3.196-14.999,3.196
			c-14.575,0-27.835-8.608-33.765-21.934c-3.156-7.084-3.979-14.89-2.379-22.56c0.246-1.195-0.005-2.436-0.697-3.425
			c-0.675-0.966-1.761-1.621-2.956-1.787c-17.727-2.477-36.124-2.196-53.598,0.792c-1.181,0.206-2.241,0.895-2.908,1.909
			c-0.657,0.995-0.866,2.236-0.586,3.408c1.815,7.388,1.341,14.998-1.352,22.026c-5.452,14.181-19.313,23.707-34.494,23.707
			c-4.508,0-8.966-0.829-13.24-2.476c-7.23-2.782-13.332-7.771-17.646-14.438c-0.658-1.006-1.709-1.709-2.882-1.921
			c-1.169-0.206-2.442,0.095-3.396,0.809C67.449,58.037,54.838,71,44.396,85.7c-0.703,0.989-0.96,2.233-0.715,3.414
			c0.246,1.189,0.983,2.219,2.027,2.842c6.553,3.917,11.656,9.672,14.755,16.64c4.011,9.012,4.268,19.041,0.737,28.258
			c-3.542,9.214-10.464,16.494-19.481,20.5c-7.185,3.179-15.242,3.974-22.986,2.27c-1.235-0.274-2.447-0.017-3.442,0.675
			c-0.986,0.681-1.652,1.761-1.827,2.968c-2.559,18.046-2.327,36.181,0.684,53.89c0.206,1.206,0.909,2.275,1.933,2.938
			c0.995,0.635,2.29,0.858,3.477,0.538c7.445-1.956,15.39-1.556,22.526,1.184c9.212,3.539,16.494,10.446,20.505,19.458
			c4.011,9.018,4.269,19.053,0.732,28.265c-2.851,7.416-8.034,13.626-14.984,17.954c-1.024,0.641-1.744,1.687-1.961,2.87
			c-0.229,1.213,0.066,2.459,0.798,3.432c10.95,14.569,24.001,27.258,38.791,37.71c0.989,0.703,2.253,0.966,3.408,0.703
			c1.235-0.269,2.27-1.023,2.879-2.081c3.937-6.805,9.792-12.076,16.928-15.256C113.945,312.765,118.994,311.69,124.18,311.69z
			 M187.921,251.565c-25.162,0-48.014-14.844-58.226-37.812c-14.264-32.078,0.229-69.797,32.304-84.072
			c8.234-3.659,16.934-5.509,25.857-5.509c25.145,0,48,14.841,58.217,37.813c14.272,32.081-0.217,69.797-32.307,84.081
			C205.539,249.718,196.845,251.565,187.921,251.565z M187.85,135.881c-7.273,0-14.375,1.51-21.097,4.503
			c-26.171,11.645-37.999,42.431-26.354,68.616c8.331,18.75,26.986,30.86,47.522,30.86c7.271,0,14.364-1.51,21.094-4.494
			c26.183-11.653,38.007-42.439,26.354-68.616C227.032,147.99,208.375,135.881,187.85,135.881z"/>
	</g>
</g>
<g>
</g>
<g>
</g>
<g>
</g>
<g>
</g>
<g>
</g>
<g>
</g>
<g>
</g>
<g>
</g>
<g>
</g>
<g>
</g>
<g>
</g>
<g>
</g>
<g>
</g>
<g>
</g>
<g>
</g>
</svg>
